<?xml version="1.0" encoding="iso-8859-1"?>
<!-- Generator: Adobe Illustrator 16.0.0, SVG Export Plug-In . SVG Version: 6.00 Build 0)  -->
<!DOCTYPE svg PUBLIC "-//W3C//DTD SVG 1.1//EN" "http://www.w3.org/Graphics/SVG/1.1/DTD/svg11.dtd">
<svg version="1.1" id="Capa_1" xmlns="http://www.w3.org/2000/svg" xmlns:xlink="http://www.w3.org/1999/xlink" x="0px" y="0px"
	 width="468.402px" height="468.402px" viewBox="0 0 468.402 468.402" style="enable-background:new 0 0 468.402 468.402;"
	 xml:space="preserve">
<g>
	<path d="M234.2,0.002C105.061,0.002,0,105.061,0,234.202C0,363.341,105.061,468.4,234.2,468.4
		c129.14,0,234.202-105.074,234.202-234.198C468.402,105.061,363.34,0.002,234.2,0.002z M234.2,444.861
		c-116.153,0-210.65-94.512-210.65-210.65c0-116.157,94.497-210.659,210.65-210.659c116.151,0,210.65,94.493,210.65,210.65
		C444.851,350.353,350.352,444.861,234.2,444.861z M234.2,153.504c-44.496,0-80.693,36.201-80.693,80.69
		c0,44.495,36.197,80.698,80.693,80.698c44.494,0,80.689-36.195,80.689-80.698C314.89,189.706,278.694,153.504,234.2,153.504z
		 M234.2,291.34c-31.512,0-57.142-25.636-57.142-57.146c0-31.504,25.629-57.138,57.142-57.138c31.515,0,57.138,25.634,57.138,57.138
		C291.338,265.705,265.715,291.34,234.2,291.34z M412.09,187.408l-78.501,28.25l-7.983-22.153l78.506-28.254L412.09,187.408z
		 M189.72,143.646l-40.563-82.547c0,0,34.017-31.448,102.055-21.187l-13.089,96.198C238.123,136.11,211.63,128.559,189.72,143.646z
		 M310.963,58.775l-52.438,79.037l13.248-94.138C271.766,43.673,304.547,49.644,310.963,58.775z M173.644,305.691l-58.779,77.279
		c-55.367-40.848-57.18-87.138-57.18-87.138l87.045-29.699C149.556,292.306,173.636,305.707,173.644,305.691z M132.057,394.844
		l57.206-75.929l-18.801,92.976C159.464,413.811,132.057,394.844,132.057,394.844z"/>
</g>
<g>
</g>
<g>
</g>
<g>
</g>
<g>
</g>
<g>
</g>
<g>
</g>
<g>
</g>
<g>
</g>
<g>
</g>
<g>
</g>
<g>
</g>
<g>
</g>
<g>
</g>
<g>
</g>
<g>
</g>
</svg>
